<svg width="18" height="18" viewBox="0 0 18 18" fill="none" xmlns="http://www.w3.org/2000/svg">
<path d="M4.4375 1V3.0625M14.0625 1V3.0625M1 15.4375V5.125C1 4.57799 1.2173 4.05339 1.60409 3.66659C1.99089 3.2798 2.51549 3.0625 3.0625 3.0625H15.4375C15.9845 3.0625 16.5091 3.2798 16.8959 3.66659C17.2827 4.05339 17.5 4.57799 17.5 5.125V15.4375M1 15.4375C1 15.9845 1.2173 16.5091 1.60409 16.8959C1.99089 17.2827 2.51549 17.5 3.0625 17.5H15.4375C15.9845 17.5 16.5091 17.2827 16.8959 16.8959C17.2827 16.5091 17.5 15.9845 17.5 15.4375M1 15.4375V8.5625C1 8.01549 1.2173 7.49089 1.60409 7.10409C1.99089 6.7173 2.51549 6.5 3.0625 6.5H15.4375C15.9845 6.5 16.5091 6.7173 16.8959 7.10409C17.2827 7.49089 17.5 8.01549 17.5 8.5625V15.4375" stroke="#9DABBF" stroke-linecap="round" stroke-linejoin="round"/>
</svg>
