<svg width="18" height="18" viewBox="0 0 18 18" fill="none" xmlns="http://www.w3.org/2000/svg">
<g clip-path="url(#clip0_1_42)">
<path d="M9 -0.0498047C13.9957 -0.0442074 18.0442 4.00427 18.0498 9L18.0381 9.46582C17.7956 14.2475 13.8419 18.0498 9 18.0498C4.00188 18.0498 -0.0498047 13.9981 -0.0498047 9C-0.0498047 4.00188 4.00188 -0.0498047 9 -0.0498047ZM5.52539 14.415L7.28613 17.1719C8.50193 17.427 9.75886 17.4073 10.9658 17.1133L12.498 14.4268L10.9248 12.3496H7.0752L5.52539 14.415ZM2.60547 14.3604C3.57754 15.5198 4.84539 16.3929 6.27441 16.8896L4.88965 14.7207L2.60547 14.3604ZM13.1406 14.7158L11.9443 16.8105C13.2857 16.3021 14.4737 15.4586 15.3955 14.3594L13.1406 14.7158ZM0.69043 9.79883C0.818291 11.1399 1.2708 12.4297 2.00879 13.5566L4.94531 14.0215L6.51953 11.9229L5.70605 8.6709L2.51465 7.60645L0.69043 9.79883ZM12.292 8.6709L11.4785 11.9219L13.0664 14.0195L15.9902 13.5566C16.7285 12.4297 17.1807 11.14 17.3086 9.79883L15.4824 7.6084L12.292 8.6709ZM6.39453 8.53223L7.17383 11.6504H10.8262L11.6045 8.5332L8.99902 6.44727L6.39453 8.53223ZM1.56934 5.2002C1.00538 6.2988 0.694608 7.50883 0.658203 8.74316L2.01953 7.11133L1.56934 5.2002ZM15.9805 7.10938L17.3408 8.74121C17.3043 7.50695 16.9936 6.29765 16.4297 5.19922L15.9805 7.10938ZM5.53711 1.4043C4.14061 2.04442 2.94624 3.05485 2.08398 4.32617L2.69531 6.92871L5.92969 8.00781L8.65039 5.83203V2.6377L5.53711 1.4043ZM9.34961 2.63672V5.83203L12.0693 8.00781L15.3037 6.92871L15.915 4.32617C15.0498 3.05032 13.8508 2.03711 12.4482 1.39746L9.34961 2.63672ZM11.4824 1.03027C9.86126 0.523415 8.12418 0.524397 6.50391 1.03418L8.99902 2.02246L11.4824 1.03027Z" fill="#9DABBF" stroke="#9DABBF" stroke-width="0.1"/>
</g>
<defs>
<clipPath id="clip0_1_42">
<rect width="18" height="18" fill="white"/>
</clipPath>
</defs>
</svg>
