<svg width="86" height="39" viewBox="0 0 86 39" fill="none" xmlns="http://www.w3.org/2000/svg">
<rect width="86" height="39" rx="19.5" fill="#D93024"/>
<path d="M16.6056 17.3286C16.5663 16.7269 16.3047 16.3083 15.4675 16.1644C14.6696 16.0467 14.3033 16.3214 14.264 16.6876C14.1856 17.1455 14.4864 17.3679 15.3236 17.6295C15.6637 17.7472 16.0038 17.8519 16.344 17.9304C18.3846 18.5713 19.0256 19.4085 18.8425 20.8344C18.6593 22.4172 17.1812 23.516 14.5387 23.0975C11.9356 22.7181 10.6144 21.4361 11.0984 19.4347C11.9356 19.5917 12.7597 19.6963 13.5969 19.8533C13.4399 20.4943 13.6754 21.0175 14.9181 21.2138C15.8599 21.3707 16.2785 21.1353 16.357 20.6513C16.4355 20.2327 16.1739 19.971 15.4937 19.7879C15.1536 19.6702 14.8135 19.5655 14.4733 19.487C12.3803 18.833 11.5824 17.8519 11.844 16.3868C12.0271 14.9478 13.3222 13.8621 15.8076 14.2676C18.1492 14.6077 19.248 15.8112 19.0518 17.6687C18.2277 17.551 17.4035 17.4464 16.6056 17.3286Z" fill="white"/>
<path d="M19.6674 20.1934C19.8898 18.4928 20.1253 16.7923 20.3084 15.0525C21.1063 15.1702 21.9305 15.2356 22.7284 15.3533C22.5453 17.0147 22.3491 18.7152 22.1659 20.3765C22.0482 21.3576 22.4276 21.9201 23.3694 22.0379C24.3112 22.1556 24.8083 21.6977 24.8737 20.6774C25.0307 19.0161 25.2139 17.3155 25.3708 15.6542C26.1688 15.7327 26.9929 15.8112 27.7909 15.8766C27.6339 17.5772 27.49 19.317 27.333 21.0175C27.1499 23.3198 25.6717 24.5233 23.0685 24.2617C20.57 23.9739 19.3665 22.4695 19.6674 20.1934Z" fill="white"/>
<path d="M28.2742 24.5365C28.4966 21.6717 28.732 18.7938 28.9544 15.9291C30.2364 16.0468 31.5183 16.1122 32.8003 16.1907C34.8017 16.3084 36.1622 17.5119 36.0837 19.3956C36.0052 21.2793 34.5401 22.3781 32.4602 22.2604C31.9631 22.2211 31.4791 22.1819 30.982 22.1819C30.9427 23.0191 30.8643 23.8824 30.825 24.7066C29.9747 24.6935 29.1114 24.615 28.2742 24.5365ZM31.1128 20.1674C31.4922 20.2066 31.9108 20.2066 32.277 20.2459C33.0357 20.2851 33.4413 19.945 33.4805 19.3433C33.5197 18.7808 33.1404 18.3622 32.3424 18.2837C31.9631 18.2444 31.5837 18.2444 31.2044 18.2052C31.2174 18.8331 31.1782 19.4871 31.1128 20.1674Z" fill="white"/>
<path d="M36.6594 25.0334C36.7772 22.1686 36.8426 19.2907 36.9603 16.4259C39.0794 16.5044 41.1855 16.5437 43.2654 16.5437C43.2654 17.2631 43.2654 17.9434 43.2654 18.6628C41.9442 18.6628 40.6623 18.6628 39.3411 18.6236C39.3411 19.003 39.3411 19.3823 39.3018 19.7878C40.4399 19.8271 41.5256 19.8271 42.6637 19.8271C42.6637 20.5073 42.6637 21.1875 42.6637 21.8677C41.5256 21.8677 40.4007 21.8677 39.2626 21.8285C39.2626 22.2471 39.2626 22.6265 39.2233 23.032C40.5838 23.0712 41.9442 23.0712 43.3047 23.0712C43.3047 23.7907 43.3047 24.4709 43.3047 25.1904C41.1201 25.1511 38.8832 25.1119 36.6594 25.0334Z" fill="white"/>
<path d="M52.1472 22.7706C52.1864 23.4901 52.2256 24.2095 52.2649 24.929C52.0817 25.0075 51.7678 25.0467 51.4669 25.086C49.8841 25.1645 48.5629 24.8244 47.6472 22.6267C47.608 22.5482 47.5687 22.4697 47.5295 22.3651C47.3071 22.3651 47.0324 22.3651 46.81 22.3651C46.81 23.2677 46.8493 24.2095 46.8493 25.1252C45.9859 25.1252 45.1487 25.1645 44.2853 25.1645C44.2853 22.2997 44.2461 19.4218 44.2461 16.557C45.5673 16.557 46.9277 16.5178 48.249 16.4785C50.2896 16.4393 51.7286 17.3811 51.794 19.3172C51.8724 20.6384 51.1922 21.5017 49.9757 21.8418C50.5774 22.8229 51.1791 22.8229 51.7155 22.7837C51.8725 22.8099 52.0294 22.7706 52.1472 22.7706ZM46.7054 18.5061C46.7054 19.1471 46.7446 19.7488 46.7446 20.3898C47.2025 20.3898 47.6472 20.3898 48.1051 20.3506C48.8638 20.3113 49.2039 19.932 49.2039 19.3695C49.2039 18.8462 48.8245 18.4669 48.0396 18.4669C47.5687 18.5061 47.1632 18.5061 46.7054 18.5061Z" fill="white"/>
<path d="M53.0899 24.8765C52.9329 22.0117 52.7891 19.1338 52.6321 16.269C53.914 16.1905 55.196 16.112 56.478 16.0466C58.5186 15.8896 59.6436 16.6876 59.7613 18.1265C59.8398 19.1469 59.1989 19.8663 58.4401 20.128C59.4997 20.3111 60.2584 20.8474 60.3238 21.9463C60.4808 23.5291 59.4212 24.5102 57.3413 24.6672C55.994 24.7326 54.555 24.811 53.0899 24.8765ZM55.3137 19.5524C55.7323 19.5131 56.1509 19.5131 56.5564 19.4739C57.1582 19.4347 57.4591 19.0945 57.3936 18.5713C57.3544 18.0742 57.0143 17.7733 56.4126 17.8126C55.994 17.8518 55.5754 17.8911 55.2091 17.8911C55.2352 18.4667 55.2745 18.9899 55.3137 19.5524ZM55.5361 22.9928C55.9547 22.9535 56.3733 22.9535 56.7788 22.9143C57.4983 22.875 57.8384 22.5349 57.7992 21.9724C57.7599 21.4492 57.3806 21.1352 56.6611 21.1745C56.2425 21.2137 55.8239 21.253 55.4184 21.253C55.4707 21.8547 55.4969 22.4303 55.5361 22.9928Z" fill="white"/>
<path d="M61.4351 24.2747C61.1735 21.4099 60.9118 18.532 60.5979 15.7064C62.6778 15.5233 64.7577 15.2878 66.8246 14.987C66.9031 15.6672 67.0077 16.3867 67.0862 17.0669C65.8042 17.2239 64.5223 17.3678 63.2403 17.5247C63.2795 17.9041 63.3188 18.2834 63.358 18.6628C64.4569 18.5451 65.5818 18.4012 66.6807 18.2834C66.7592 18.9637 66.8638 19.6439 66.9423 20.3241C65.8042 20.4811 64.7185 20.5857 63.5804 20.7427C63.6197 21.1613 63.6589 21.5407 63.6981 21.9462C65.0586 21.7892 66.3798 21.6453 67.7403 21.4491C67.8187 22.1293 67.9234 22.8488 68.0019 23.529C65.8827 23.8299 63.6589 24.0523 61.4351 24.2747ZM71.1414 23.1104C70.8405 20.952 70.5004 18.8067 70.1995 16.6483C69.4408 16.766 68.6952 16.8707 67.9365 16.9492C67.858 16.2689 67.7533 15.5495 67.6748 14.8692C69.9771 14.5684 72.2794 14.189 74.621 13.8097C74.7387 14.4899 74.8434 15.2094 75.0003 15.8896C74.2416 16.0466 73.4567 16.1512 72.698 16.2689C73.0381 18.4273 73.3783 20.5727 73.7576 22.6918C72.8027 22.8357 71.9655 22.9927 71.1414 23.1104Z" fill="white"/>
</svg>
